<svg width="388" height="113" viewBox="0 0 388 113" fill="none" xmlns="http://www.w3.org/2000/svg">
<path d="M369.104 69.75C369.104 67.55 369.104 65.9 369.104 64.8C369.204 63.7 369.504 62.9 370.004 62.4C370.604 61.9 371.504 61.65 372.704 61.65C374.004 61.55 375.854 61.5 378.254 61.5C380.654 61.5 382.454 61.55 383.654 61.65C384.954 61.65 385.854 61.9 386.354 62.4C386.954 62.9 387.254 63.7 387.254 64.8C387.354 65.9 387.404 67.55 387.404 69.75C387.404 71.95 387.354 73.6 387.254 74.7C387.254 75.8 386.954 76.6 386.354 77.1C385.854 77.6 384.954 77.9 383.654 78C382.454 78 380.654 78 378.254 78C375.854 78 374.004 78 372.704 78C371.504 77.9 370.604 77.6 370.004 77.1C369.504 76.6 369.204 75.8 369.104 74.7C369.104 73.6 369.104 71.95 369.104 69.75Z" fill="#EE9A0F"/>
<path d="M358.087 30.3C358.287 31.8 358.437 33.35 358.537 34.95C358.737 36.55 358.837 38.25 358.837 40.05V42.75H306.337C306.537 44.45 306.787 46.2 307.087 48C307.387 49.7 307.887 51.4 308.587 53.1C309.687 55.7 311.387 58 313.687 60C315.987 62 319.187 63 323.287 63C327.387 63 330.587 62 332.887 60C335.187 58 336.887 55.7 337.987 53.1H357.487C356.687 56.6 355.537 59.65 354.037 62.25C352.637 64.85 351.037 67.1 349.237 69C347.537 70.9 345.687 72.5 343.687 73.8C341.687 75 339.737 76 337.837 76.8C333.237 78.6 328.387 79.5 323.287 79.5C316.587 79.4 310.637 78 305.437 75.3C303.237 74.1 301.037 72.6 298.837 70.8C296.737 68.9 294.837 66.55 293.137 63.75C291.537 60.95 290.237 57.6 289.237 53.7C288.237 49.8 287.737 45.25 287.737 40.05C287.737 34.85 288.237 30.3 289.237 26.4C290.237 22.5 291.537 19.15 293.137 16.35C294.837 13.45 296.737 11.05 298.837 9.15001C301.037 7.25001 303.237 5.70001 305.437 4.50001C310.637 1.70001 316.587 0.200003 323.287 0C328.787 0.200003 333.937 1.35 338.737 3.45C340.737 4.35 342.737 5.55 344.737 7.05C346.837 8.45 348.737 10.25 350.437 12.45C352.237 14.55 353.787 17.1 355.087 20.1C356.487 23 357.487 26.4 358.087 30.3ZM339.187 30.3C338.687 28.7 338.037 27.1 337.237 25.5C336.537 23.9 335.537 22.45 334.237 21.15C332.937 19.85 331.387 18.85 329.587 18.15C327.787 17.35 325.687 16.95 323.287 16.95C320.887 16.95 318.787 17.35 316.987 18.15C315.187 18.85 313.637 19.85 312.337 21.15C311.037 22.45 309.987 23.9 309.187 25.5C308.387 27.1 307.787 28.7 307.387 30.3H339.187Z" fill="#D8D6F5"/>
<path d="M259.614 40.05C259.614 37.35 259.414 34.7 259.014 32.1C258.714 29.4 257.964 27 256.764 24.9C255.664 22.7 253.964 20.95 251.664 19.65C249.364 18.35 246.264 17.7 242.364 17.7C238.664 17.7 235.664 18.45 233.364 19.95C231.164 21.45 229.464 23.35 228.264 25.65C227.064 27.85 226.264 30.25 225.864 32.85C225.464 35.45 225.264 37.85 225.264 40.05C225.264 42.25 225.464 44.65 225.864 47.25C226.264 49.85 227.064 52.3 228.264 54.6C229.464 56.8 231.164 58.65 233.364 60.15C235.664 61.65 238.664 62.4 242.364 62.4C246.064 62.4 249.014 61.65 251.214 60.15C253.514 58.65 255.264 56.8 256.464 54.6C257.764 52.3 258.614 49.85 259.014 47.25C259.414 44.65 259.614 42.25 259.614 40.05ZM242.364 0C248.664 0 254.014 0.9 258.414 2.7C262.814 4.5 266.414 7.15 269.214 10.65C272.114 14.05 274.214 18.25 275.514 23.25C276.814 28.15 277.464 33.75 277.464 40.05V74.25C277.464 77.25 277.264 80 276.864 82.5C276.564 85.1 276.114 87.5 275.514 89.7C274.614 93 273.114 96 271.014 98.7C269.014 101.5 266.414 103.9 263.214 105.9C260.014 107.9 256.214 109.45 251.814 110.55C247.414 111.65 242.364 112.2 236.664 112.2L216.714 112.05V95.1H232.914C239.714 95.1 244.914 94.4 248.514 93C252.114 91.6 254.714 89.9 256.314 87.9C258.014 86 258.964 84.05 259.164 82.05C259.464 80.05 259.614 78.5 259.614 77.4V67.5L262.914 63.15C261.214 67.35 259.064 70.55 256.464 72.75C253.864 74.95 251.314 76.55 248.814 77.55C245.914 78.65 242.914 79.3 239.814 79.5C233.614 79.4 228.114 78 223.314 75.3C221.214 74.1 219.164 72.6 217.164 70.8C215.264 68.9 213.514 66.55 211.914 63.75C210.414 60.95 209.164 57.6 208.164 53.7C207.264 49.8 206.814 45.25 206.814 40.05C206.814 34.85 207.314 30.3 208.314 26.4C209.314 22.5 210.614 19.15 212.214 16.35C213.914 13.45 215.814 11.05 217.914 9.15001C220.114 7.25001 222.314 5.70001 224.514 4.50001C229.714 1.70001 235.664 0.200003 242.364 0Z" fill="#D8D6F5"/>
<path d="M196.984 78H179.133V67.5L182.434 63.15C180.734 67.35 178.584 70.55 175.984 72.75C173.384 74.95 170.834 76.55 168.334 77.55C165.434 78.65 162.434 79.3 159.334 79.5C153.134 79.4 147.633 78 142.833 75.3C140.733 74.1 138.684 72.6 136.684 70.8C134.784 68.9 133.034 66.55 131.434 63.75C129.934 60.95 128.684 57.6 127.684 53.7C126.784 49.8 126.333 45.25 126.333 40.05C126.333 34.85 126.833 30.3 127.833 26.4C128.833 22.5 130.134 19.15 131.734 16.35C133.434 13.45 135.334 11.05 137.434 9.15001C139.634 7.25001 141.834 5.70001 144.034 4.50001C149.234 1.70001 155.183 0.200003 161.883 0C168.184 0 173.534 0.950003 177.934 2.85C182.334 4.65001 185.934 7.30001 188.734 10.8C191.634 14.2 193.734 18.4 195.034 23.4C196.334 28.3 196.984 33.9 196.984 40.2V78ZM161.883 17.7C158.183 17.7 155.183 18.45 152.883 19.95C150.683 21.45 148.984 23.35 147.784 25.65C146.584 27.85 145.783 30.25 145.383 32.85C144.983 35.45 144.784 37.85 144.784 40.05C144.784 42.25 144.983 44.65 145.383 47.25C145.783 49.85 146.584 52.3 147.784 54.6C148.984 56.8 150.683 58.65 152.883 60.15C155.183 61.65 158.183 62.4 161.883 62.4C165.583 62.4 168.534 61.65 170.734 60.15C173.034 58.65 174.784 56.8 175.984 54.6C177.284 52.3 178.134 49.85 178.534 47.25C178.934 44.65 179.133 42.25 179.133 40.05C179.133 37.35 178.934 34.7 178.534 32.1C178.234 29.4 177.484 27 176.284 24.9C175.184 22.7 173.484 20.95 171.184 19.65C168.884 18.35 165.784 17.7 161.883 17.7Z" fill="#D8D6F5"/>
<path d="M49.2 40.05C49.2 37.85 49.05 35.6 48.75 33.3C48.55 31 47.95 28.9 46.95 27C45.95 25.1 44.4 23.55 42.3 22.35C40.3 21.05 37.45 20.4 33.75 20.4C30.05 20.4 27.15 21.05 25.05 22.35C23.05 23.55 21.55 25.1 20.55 27C19.55 28.9 18.9 31 18.6 33.3C18.4 35.6 18.3 37.85 18.3 40.05V78H0V40.05C0 34.85 0.45 30.3 1.35 26.4C2.35 22.5 3.65 19.15 5.25 16.35C6.85 13.45 8.65 11.05 10.65 9.15001C12.65 7.25001 14.7 5.70001 16.8 4.50001C21.7 1.70001 27.35 0.200003 33.75 0C40.05 0.200003 45.65 1.70001 50.55 4.50001C52.65 5.70001 54.7 7.25001 56.7 9.15001C58.8 11.05 60.6 13.45 62.1 16.35C63.7 19.15 65 22.5 66 26.4C67 30.3 67.5 34.85 67.5 40.05V78H49.2V40.05ZM98.4 40.05C98.4 37.85 98.25 35.6 97.95 33.3C97.75 31 97.15 28.9 96.15 27C95.15 25.1 93.6 23.55 91.5 22.35C89.5 21.05 86.65 20.4 82.95 20.4C79.25 20.4 76.35 21.05 74.25 22.35C72.25 23.55 70.75 25.1 69.75 27C68.75 28.9 68.1 31 67.8 33.3C67.6 35.6 67.5 37.85 67.5 40.05V78H49.2V40.05C49.2 34.85 49.65 30.3 50.55 26.4C51.55 22.5 52.85 19.15 54.45 16.35C56.05 13.45 57.85 11.05 59.85 9.15001C61.85 7.25001 63.9 5.70001 66 4.50001C70.9 1.70001 76.55 0.200003 82.95 0C89.25 0.200003 94.85 1.70001 99.75 4.50001C101.85 5.70001 103.9 7.25001 105.9 9.15001C108 11.05 109.8 13.45 111.3 16.35C112.9 19.15 114.2 22.5 115.2 26.4C116.2 30.3 116.7 34.85 116.7 40.05V78H98.4V40.05Z" fill="#D8D6F5"/>
</svg>
