<svg width="514" height="104" viewBox="0 0 514 104" fill="none" xmlns="http://www.w3.org/2000/svg">
<path d="M494.883 93.75C494.883 91.55 494.883 89.9 494.883 88.8C494.983 87.7 495.283 86.9 495.783 86.4C496.383 85.9 497.283 85.65 498.483 85.65C499.783 85.55 501.633 85.5 504.033 85.5C506.433 85.5 508.233 85.55 509.433 85.65C510.733 85.65 511.633 85.9 512.133 86.4C512.733 86.9 513.033 87.7 513.033 88.8C513.133 89.9 513.183 91.55 513.183 93.75C513.183 95.95 513.133 97.6 513.033 98.7C513.033 99.8 512.733 100.6 512.133 101.1C511.633 101.6 510.733 101.9 509.433 102C508.233 102 506.433 102 504.033 102C501.633 102 499.783 102 498.483 102C497.283 101.9 496.383 101.6 495.783 101.1C495.283 100.6 494.983 99.8 494.883 98.7C494.883 97.6 494.883 95.95 494.883 93.75Z" fill="#EE9A0F"/>
<path d="M464.636 43.7998V77.2498C464.936 78.4498 465.486 79.5498 466.286 80.5498C466.986 81.3498 467.936 82.0998 469.136 82.7998C470.436 83.4998 472.086 83.8498 474.086 83.8498H485.486V102H467.186C463.286 101.6 459.786 100.5 456.686 98.6998C454.086 97.1998 451.686 94.9998 449.486 92.0998C447.386 89.0998 446.336 84.9998 446.336 79.7998V5.5498H464.636V25.9498H481.886V43.7998H464.636Z" fill="white"/>
<path d="M365.396 64.05C365.396 58.85 365.896 54.3 366.896 50.4C367.896 46.5 369.196 43.15 370.796 40.35C372.496 37.45 374.395 35.05 376.495 33.15C378.695 31.25 380.895 29.7 383.095 28.5C388.295 25.7 394.245 24.2 400.945 24C407.545 24.2 413.446 25.7 418.646 28.5C420.846 29.7 422.995 31.25 425.095 33.15C427.295 35.05 429.196 37.45 430.796 40.35C432.496 43.15 433.845 46.5 434.845 50.4C435.945 54.3 436.496 58.85 436.496 64.05C436.496 69.25 435.945 73.8 434.845 77.7C433.845 81.6 432.496 84.95 430.796 87.75C429.196 90.55 427.295 92.9 425.095 94.8C422.995 96.6 420.846 98.1 418.646 99.3C413.446 102 407.545 103.4 400.945 103.5C394.245 103.4 388.295 102 383.095 99.3C380.895 98.1 378.695 96.6 376.495 94.8C374.395 92.9 372.496 90.55 370.796 87.75C369.196 84.95 367.896 81.6 366.896 77.7C365.896 73.8 365.396 69.25 365.396 64.05ZM400.945 41.7C397.245 41.7 394.245 42.45 391.945 43.95C389.745 45.45 388.045 47.35 386.845 49.65C385.645 51.85 384.845 54.25 384.445 56.85C384.045 59.45 383.845 61.85 383.845 64.05C383.845 66.25 384.045 68.65 384.445 71.25C384.845 73.85 385.645 76.3 386.845 78.6C388.045 80.8 389.745 82.65 391.945 84.15C394.245 85.65 397.245 86.4 400.945 86.4C404.645 86.4 407.596 85.65 409.796 84.15C412.096 82.65 413.846 80.8 415.046 78.6C416.246 76.3 417.045 73.85 417.445 71.25C417.845 68.65 418.046 66.25 418.046 64.05C418.046 61.85 417.845 59.45 417.445 56.85C417.045 54.25 416.246 51.85 415.046 49.65C413.846 47.35 412.096 45.45 409.796 43.95C407.596 42.45 404.645 41.7 400.945 41.7Z" fill="white"/>
<path d="M300.075 40.95C301.775 36.75 303.925 33.55 306.525 31.35C309.125 29.05 311.675 27.35 314.175 26.25C317.075 25.05 320.075 24.3 323.175 24C329.375 24.2 334.875 25.7 339.675 28.5C341.775 29.7 343.775 31.25 345.675 33.15C347.675 35.05 349.425 37.45 350.925 40.35C352.525 43.15 353.775 46.5 354.675 50.4C355.675 54.3 356.175 58.85 356.175 64.05C356.175 69.25 355.625 73.8 354.525 77.7C353.525 81.6 352.175 84.95 350.475 87.75C348.875 90.55 346.975 92.9 344.775 94.8C342.675 96.6 340.525 98.1 338.325 99.3C333.125 102 327.225 103.4 320.625 103.5C314.025 103.4 308.175 102 303.075 99.3C300.875 98.1 298.725 96.6 296.625 94.8C294.525 92.9 292.625 90.55 290.925 87.75C289.325 84.85 288.025 81.45 287.025 77.55C286.025 73.65 285.525 69.1 285.525 63.9V0.75H303.375V36.6L300.075 40.95ZM320.625 86.4C324.325 86.4 327.275 85.65 329.475 84.15C331.775 82.65 333.525 80.8 334.725 78.6C335.925 76.3 336.725 73.85 337.125 71.25C337.525 68.65 337.725 66.25 337.725 64.05C337.725 61.85 337.525 59.45 337.125 56.85C336.725 54.25 335.925 51.85 334.725 49.65C333.525 47.35 331.775 45.45 329.475 43.95C327.275 42.45 324.325 41.7 320.625 41.7C316.925 41.7 313.925 42.45 311.625 43.95C309.425 45.45 307.675 47.35 306.375 49.65C305.175 51.85 304.375 54.25 303.975 56.85C303.575 59.45 303.375 61.85 303.375 64.05C303.375 66.25 303.575 68.65 303.975 71.25C304.375 73.85 305.175 76.3 306.375 78.6C307.675 80.8 309.425 82.65 311.625 84.15C313.925 85.65 316.925 86.4 320.625 86.4Z" fill="white"/>
<path d="M255.129 43.7998V77.2498C255.429 78.4498 255.979 79.5498 256.779 80.5498C257.479 81.3498 258.429 82.0998 259.629 82.7998C260.929 83.4998 262.579 83.8498 264.579 83.8498H275.979V102H257.679C253.779 101.6 250.279 100.5 247.179 98.6998C244.579 97.1998 242.179 94.9998 239.979 92.0998C237.879 89.0998 236.829 84.9998 236.829 79.7998V5.5498H255.129V25.9498H272.379V43.7998H255.129Z" fill="white"/>
<path d="M226.548 102H208.698V91.5L211.998 87.15C210.298 91.35 208.148 94.55 205.548 96.75C202.948 98.95 200.398 100.55 197.898 101.55C194.998 102.65 191.998 103.3 188.898 103.5C182.698 103.4 177.198 102 172.398 99.3C170.298 98.1 168.248 96.6 166.248 94.8C164.348 92.9 162.598 90.55 160.998 87.75C159.498 84.95 158.248 81.6 157.248 77.7C156.348 73.8 155.898 69.25 155.898 64.05C155.898 58.85 156.398 54.3 157.398 50.4C158.398 46.5 159.698 43.15 161.298 40.35C162.998 37.45 164.898 35.05 166.998 33.15C169.198 31.25 171.398 29.7 173.598 28.5C178.798 25.7 184.748 24.2 191.448 24C197.748 24 203.098 24.95 207.498 26.85C211.898 28.65 215.498 31.3 218.298 34.8C221.198 38.2 223.298 42.4 224.598 47.4C225.898 52.3 226.548 57.9 226.548 64.2V102ZM191.448 41.7C187.748 41.7 184.748 42.45 182.448 43.95C180.248 45.45 178.548 47.35 177.348 49.65C176.148 51.85 175.348 54.25 174.948 56.85C174.548 59.45 174.348 61.85 174.348 64.05C174.348 66.25 174.548 68.65 174.948 71.25C175.348 73.85 176.148 76.3 177.348 78.6C178.548 80.8 180.248 82.65 182.448 84.15C184.748 85.65 187.748 86.4 191.448 86.4C195.148 86.4 198.098 85.65 200.298 84.15C202.598 82.65 204.348 80.8 205.548 78.6C206.848 76.3 207.698 73.85 208.098 71.25C208.498 68.65 208.698 66.25 208.698 64.05C208.698 61.35 208.498 58.7 208.098 56.1C207.798 53.4 207.048 51 205.848 48.9C204.748 46.7 203.048 44.95 200.748 43.65C198.448 42.35 195.348 41.7 191.448 41.7Z" fill="white"/>
<path d="M99.1516 0.75V34.8C100.052 33.8 101.102 32.75 102.302 31.65C103.502 30.55 104.902 29.55 106.502 28.65C108.102 27.75 109.952 27.05 112.052 26.55C114.152 25.95 116.552 25.65 119.252 25.65C122.252 25.65 125.302 26.2 128.402 27.3C131.602 28.4 134.452 30.1 136.952 32.4C139.552 34.6 141.652 37.4 143.252 40.8C144.952 44.1 145.802 48 145.802 52.5V102H127.502V60.6C127.502 58.2 127.352 56 127.052 54C126.752 51.9 126.102 50.05 125.102 48.45C124.202 46.85 122.802 45.6 120.902 44.7C119.102 43.8 116.652 43.35 113.552 43.35C110.352 43.35 107.802 43.8 105.902 44.7C104.002 45.6 102.502 46.85 101.402 48.45C100.402 50.05 99.7516 51.9 99.4516 54C99.1516 56 99.0016 58.2 99.0016 60.6L99.3016 102H80.8516V0.75H99.1516Z" fill="white"/>
<path d="M70.55 54.45H51.95C51.45 52.85 50.8 51.3 50 49.8C49.3 48.2 48.3 46.8 47 45.6C45.8 44.4 44.3 43.45 42.5 42.75C40.7 42.05 38.55 41.7 36.05 41.7C32.35 41.7 29.35 42.45 27.05 43.95C24.85 45.45 23.15 47.35 21.95 49.65C20.75 51.85 19.95 54.25 19.55 56.85C19.15 59.45 18.95 61.85 18.95 64.05C18.95 66.25 19.15 68.65 19.55 71.25C19.95 73.85 20.75 76.3 21.95 78.6C23.15 80.8 24.85 82.65 27.05 84.15C29.35 85.65 32.35 86.4 36.05 86.4C40.95 86.4 44.6 85.1 47 82.5C49.5 79.9 51.2 76.9 52.1 73.5H70.55C69.95 77.5 68.95 81 67.55 84C66.25 86.9 64.75 89.45 63.05 91.65C61.35 93.75 59.5 95.5 57.5 96.9C55.5 98.3 53.5 99.45 51.5 100.35C46.8 102.45 41.65 103.5 36.05 103.5C29.35 103.4 23.4 102 18.2 99.3C16 98.1 13.8 96.6 11.6 94.8C9.5 92.9 7.6 90.55 5.9 87.75C4.3 84.95 3 81.6 2 77.7C1 73.8 0.5 69.25 0.5 64.05C0.5 58.85 1 54.3 2 50.4C3 46.5 4.35 43.15 6.05 40.35C7.75 37.45 9.65 35.05 11.75 33.15C13.85 31.25 16.05 29.7 18.35 28.5C23.55 25.7 29.5 24.2 36.2 24C41.7 24.2 46.8 25.35 51.5 27.45C53.5 28.35 55.5 29.55 57.5 31.05C59.5 32.45 61.35 34.25 63.05 36.45C64.75 38.65 66.25 41.25 67.55 44.25C68.95 47.15 69.95 50.55 70.55 54.45Z" fill="white"/>
</svg>
