<svg width="500" height="113" viewBox="0 0 500 113" fill="none" xmlns="http://www.w3.org/2000/svg">
<path d="M481.425 69.75C481.425 67.55 481.425 65.9 481.425 64.8C481.525 63.7 481.825 62.9 482.325 62.4C482.925 61.9 483.825 61.65 485.025 61.65C486.325 61.55 488.175 61.5 490.575 61.5C492.975 61.5 494.775 61.55 495.975 61.65C497.275 61.65 498.175 61.9 498.675 62.4C499.275 62.9 499.575 63.7 499.575 64.8C499.675 65.9 499.725 67.55 499.725 69.75C499.725 71.95 499.675 73.6 499.575 74.7C499.575 75.8 499.275 76.6 498.675 77.1C498.175 77.6 497.275 77.9 495.975 78C494.775 78 492.975 78 490.575 78C488.175 78 486.325 78 485.025 78C483.825 77.9 482.925 77.6 482.325 77.1C481.825 76.6 481.525 75.8 481.425 74.7C481.425 73.6 481.425 71.95 481.425 69.75Z" fill="#EE9A0F"/>
<path d="M470.409 30.3C470.609 31.8 470.759 33.35 470.859 34.95C471.059 36.55 471.159 38.25 471.159 40.05V42.75H418.659C418.859 44.45 419.109 46.2 419.409 48C419.709 49.7 420.209 51.4 420.909 53.1C422.009 55.7 423.709 58 426.009 60C428.309 62 431.509 63 435.609 63C439.709 63 442.909 62 445.209 60C447.509 58 449.209 55.7 450.309 53.1H469.809C469.009 56.6 467.859 59.65 466.359 62.25C464.959 64.85 463.359 67.1 461.559 69C459.859 70.9 458.009 72.5 456.009 73.8C454.009 75 452.059 76 450.159 76.8C445.559 78.6 440.709 79.5 435.609 79.5C428.909 79.4 422.959 78 417.759 75.3C415.559 74.1 413.359 72.6 411.159 70.8C409.059 68.9 407.159 66.55 405.459 63.75C403.859 60.95 402.559 57.6 401.559 53.7C400.559 49.8 400.059 45.25 400.059 40.05C400.059 34.85 400.559 30.3 401.559 26.4C402.559 22.5 403.859 19.15 405.459 16.35C407.159 13.45 409.059 11.05 411.159 9.15001C413.359 7.25001 415.559 5.70001 417.759 4.50001C422.959 1.70001 428.909 0.200003 435.609 0C441.109 0.200003 446.259 1.35 451.059 3.45C453.059 4.35 455.059 5.55 457.059 7.05C459.159 8.45 461.059 10.25 462.759 12.45C464.559 14.55 466.109 17.1 467.409 20.1C468.809 23 469.809 26.4 470.409 30.3ZM451.509 30.3C451.009 28.7 450.359 27.1 449.559 25.5C448.859 23.9 447.859 22.45 446.559 21.15C445.259 19.85 443.709 18.85 441.909 18.15C440.109 17.35 438.009 16.95 435.609 16.95C433.209 16.95 431.109 17.35 429.309 18.15C427.509 18.85 425.959 19.85 424.659 21.15C423.359 22.45 422.309 23.9 421.509 25.5C420.709 27.1 420.109 28.7 419.709 30.3H451.509Z" fill="#D8D6F5"/>
<path d="M371.935 40.05C371.935 37.35 371.735 34.7 371.335 32.1C371.035 29.4 370.285 27 369.085 24.9C367.985 22.7 366.285 20.95 363.985 19.65C361.685 18.35 358.585 17.7 354.685 17.7C350.985 17.7 347.985 18.45 345.685 19.95C343.485 21.45 341.785 23.35 340.585 25.65C339.385 27.85 338.585 30.25 338.185 32.85C337.785 35.45 337.585 37.85 337.585 40.05C337.585 42.25 337.785 44.65 338.185 47.25C338.585 49.85 339.385 52.3 340.585 54.6C341.785 56.8 343.485 58.65 345.685 60.15C347.985 61.65 350.985 62.4 354.685 62.4C358.385 62.4 361.335 61.65 363.535 60.15C365.835 58.65 367.585 56.8 368.785 54.6C370.085 52.3 370.935 49.85 371.335 47.25C371.735 44.65 371.935 42.25 371.935 40.05ZM354.685 0C360.985 0 366.335 0.9 370.735 2.7C375.135 4.5 378.735 7.15 381.535 10.65C384.435 14.05 386.535 18.25 387.835 23.25C389.135 28.15 389.785 33.75 389.785 40.05V74.25C389.785 77.25 389.585 80 389.185 82.5C388.885 85.1 388.435 87.5 387.835 89.7C386.935 93 385.435 96 383.335 98.7C381.335 101.5 378.735 103.9 375.535 105.9C372.335 107.9 368.535 109.45 364.135 110.55C359.735 111.65 354.685 112.2 348.985 112.2L329.035 112.05V95.1H345.235C352.035 95.1 357.235 94.4 360.835 93C364.435 91.6 367.035 89.9 368.635 87.9C370.335 86 371.285 84.05 371.485 82.05C371.785 80.05 371.935 78.5 371.935 77.4V67.5L375.235 63.15C373.535 67.35 371.385 70.55 368.785 72.75C366.185 74.95 363.635 76.55 361.135 77.55C358.235 78.65 355.235 79.3 352.135 79.5C345.935 79.4 340.435 78 335.635 75.3C333.535 74.1 331.485 72.6 329.485 70.8C327.585 68.9 325.835 66.55 324.235 63.75C322.735 60.95 321.485 57.6 320.485 53.7C319.585 49.8 319.135 45.25 319.135 40.05C319.135 34.85 319.635 30.3 320.635 26.4C321.635 22.5 322.935 19.15 324.535 16.35C326.235 13.45 328.135 11.05 330.235 9.15001C332.435 7.25001 334.635 5.70001 336.835 4.50001C342.035 1.70001 347.985 0.200003 354.685 0Z" fill="#D8D6F5"/>
<path d="M309.305 78H291.455V67.5L294.755 63.15C293.055 67.35 290.905 70.55 288.305 72.75C285.705 74.95 283.155 76.55 280.655 77.55C277.755 78.65 274.755 79.3 271.655 79.5C265.455 79.4 259.955 78 255.155 75.3C253.055 74.1 251.005 72.6 249.005 70.8C247.105 68.9 245.355 66.55 243.755 63.75C242.255 60.95 241.005 57.6 240.005 53.7C239.105 49.8 238.655 45.25 238.655 40.05C238.655 34.85 239.155 30.3 240.155 26.4C241.155 22.5 242.455 19.15 244.055 16.35C245.755 13.45 247.655 11.05 249.755 9.15001C251.955 7.25001 254.155 5.70001 256.355 4.50001C261.555 1.70001 267.505 0.200003 274.205 0C280.505 0 285.855 0.950003 290.255 2.85C294.655 4.65001 298.255 7.30001 301.055 10.8C303.955 14.2 306.055 18.4 307.355 23.4C308.655 28.3 309.305 33.9 309.305 40.2V78ZM274.205 17.7C270.505 17.7 267.505 18.45 265.205 19.95C263.005 21.45 261.305 23.35 260.105 25.65C258.905 27.85 258.105 30.25 257.705 32.85C257.305 35.45 257.105 37.85 257.105 40.05C257.105 42.25 257.305 44.65 257.705 47.25C258.105 49.85 258.905 52.3 260.105 54.6C261.305 56.8 263.005 58.65 265.205 60.15C267.505 61.65 270.505 62.4 274.205 62.4C277.905 62.4 280.855 61.65 283.055 60.15C285.355 58.65 287.105 56.8 288.305 54.6C289.605 52.3 290.455 49.85 290.855 47.25C291.255 44.65 291.455 42.25 291.455 40.05C291.455 37.35 291.255 34.7 290.855 32.1C290.555 29.4 289.805 27 288.605 24.9C287.505 22.7 285.805 20.95 283.505 19.65C281.205 18.35 278.105 17.7 274.205 17.7Z" fill="#D8D6F5"/>
<path d="M210.681 40.05C210.681 37.35 210.481 34.7 210.081 32.1C209.781 29.4 209.031 27 207.831 24.9C206.731 22.7 205.031 20.95 202.731 19.65C200.431 18.35 197.331 17.7 193.431 17.7C189.731 17.7 186.731 18.45 184.431 19.95C182.231 21.45 180.531 23.35 179.331 25.65C178.131 27.85 177.331 30.25 176.931 32.85C176.531 35.45 176.331 37.85 176.331 40.05C176.331 42.25 176.531 44.65 176.931 47.25C177.331 49.85 178.131 52.3 179.331 54.6C180.531 56.8 182.231 58.65 184.431 60.15C186.731 61.65 189.731 62.4 193.431 62.4C197.131 62.4 200.081 61.65 202.281 60.15C204.581 58.65 206.331 56.8 207.531 54.6C208.831 52.3 209.681 49.85 210.081 47.25C210.481 44.65 210.681 42.25 210.681 40.05ZM193.431 0C199.731 0 205.081 0.9 209.481 2.7C213.881 4.5 217.481 7.15 220.281 10.65C223.181 14.05 225.281 18.25 226.581 23.25C227.881 28.15 228.531 33.75 228.531 40.05V74.25C228.531 77.25 228.331 80 227.931 82.5C227.631 85.1 227.181 87.5 226.581 89.7C225.681 93 224.181 96 222.081 98.7C220.081 101.5 217.481 103.9 214.281 105.9C211.081 107.9 207.281 109.45 202.881 110.55C198.481 111.65 193.431 112.2 187.731 112.2L167.781 112.05V95.1H183.981C190.781 95.1 195.981 94.4 199.581 93C203.181 91.6 205.781 89.9 207.381 87.9C209.081 86 210.031 84.05 210.231 82.05C210.531 80.05 210.681 78.5 210.681 77.4V67.5L213.981 63.15C212.281 67.35 210.131 70.55 207.531 72.75C204.931 74.95 202.381 76.55 199.881 77.55C196.981 78.65 193.981 79.3 190.881 79.5C184.681 79.4 179.181 78 174.381 75.3C172.281 74.1 170.231 72.6 168.231 70.8C166.331 68.9 164.581 66.55 162.981 63.75C161.481 60.95 160.231 57.6 159.231 53.7C158.331 49.8 157.881 45.25 157.881 40.05C157.881 34.85 158.381 30.3 159.381 26.4C160.381 22.5 161.681 19.15 163.281 16.35C164.981 13.45 166.881 11.05 168.981 9.15001C171.181 7.25001 173.381 5.70001 175.581 4.50001C180.781 1.70001 186.731 0.200003 193.431 0Z" fill="#D8D6F5"/>
<path d="M114.516 0C114.816 0 115.866 0.0500028 117.666 0.150002C119.566 0.250006 121.766 0.700004 124.266 1.5C126.766 2.2 129.416 3.35 132.216 4.95C135.016 6.55 137.616 8.85001 140.016 11.85C142.416 14.85 144.366 18.65 145.866 23.25C147.466 27.75 148.266 33.35 148.266 40.05V78H129.966V40.05C129.966 37.85 129.766 35.6 129.366 33.3C128.966 31 128.216 28.9 127.116 27C126.016 25.1 124.466 23.55 122.466 22.35C120.466 21.05 117.816 20.4 114.516 20.4C111.216 20.4 108.566 21.05 106.566 22.35C104.566 23.55 103.016 25.1 101.916 27C100.816 28.9 100.066 31 99.6664 33.3C99.2664 35.6 99.0664 37.85 99.0664 40.05V78H80.7664V40.05C80.7664 33.35 81.5164 27.75 83.0164 23.25C84.6164 18.65 86.6164 14.85 89.0164 11.85C91.4164 8.85001 94.0164 6.55 96.8164 4.95C99.6164 3.35 102.266 2.2 104.766 1.5C107.266 0.700004 109.416 0.250006 111.216 0.150002C113.016 0.0500028 114.116 0 114.516 0Z" fill="#D8D6F5"/>
<path d="M70.35 30.3C70.55 31.8 70.7 33.35 70.8 34.95C71 36.55 71.1 38.25 71.1 40.05V42.75H18.6C18.8 44.45 19.05 46.2 19.35 48C19.65 49.7 20.15 51.4 20.85 53.1C21.95 55.7 23.65 58 25.95 60C28.25 62 31.45 63 35.55 63C39.65 63 42.85 62 45.15 60C47.45 58 49.15 55.7 50.25 53.1H69.75C68.95 56.6 67.8 59.65 66.3 62.25C64.9 64.85 63.3 67.1 61.5 69C59.8 70.9 57.95 72.5 55.95 73.8C53.95 75 52 76 50.1 76.8C45.5 78.6 40.65 79.5 35.55 79.5C28.85 79.4 22.9 78 17.7 75.3C15.5 74.1 13.3 72.6 11.1 70.8C9 68.9 7.1 66.55 5.4 63.75C3.8 60.95 2.5 57.6 1.5 53.7C0.5 49.8 0 45.25 0 40.05C0 34.85 0.5 30.3 1.5 26.4C2.5 22.5 3.8 19.15 5.4 16.35C7.1 13.45 9 11.05 11.1 9.15001C13.3 7.25001 15.5 5.70001 17.7 4.50001C22.9 1.70001 28.85 0.200003 35.55 0C41.05 0.200003 46.2 1.35 51 3.45C53 4.35 55 5.55 57 7.05C59.1 8.45 61 10.25 62.7 12.45C64.5 14.55 66.05 17.1 67.35 20.1C68.75 23 69.75 26.4 70.35 30.3ZM51.45 30.3C50.95 28.7 50.3 27.1 49.5 25.5C48.8 23.9 47.8 22.45 46.5 21.15C45.2 19.85 43.65 18.85 41.85 18.15C40.05 17.35 37.95 16.95 35.55 16.95C33.15 16.95 31.05 17.35 29.25 18.15C27.45 18.85 25.9 19.85 24.6 21.15C23.3 22.45 22.25 23.9 21.45 25.5C20.65 27.1 20.05 28.7 19.65 30.3H51.45Z" fill="#D8D6F5"/>
</svg>
