<svg width="655" height="114" viewBox="0 0 655 114" fill="none" xmlns="http://www.w3.org/2000/svg">
<path d="M654.167 59.8747C654.387 61.5248 654.552 63.2299 654.662 64.9901C654.882 66.7502 654.992 68.6204 654.992 70.6005V73.5708H597.237C597.457 75.4409 597.732 77.3661 598.062 79.3463C598.392 81.2164 598.942 83.0865 599.712 84.9567C600.922 87.8169 602.792 90.3471 605.323 92.5473C607.853 94.7475 611.373 95.8476 615.884 95.8476C620.394 95.8476 623.914 94.7475 626.444 92.5473C628.975 90.3471 630.845 87.8169 632.055 84.9567H653.507C652.626 88.807 651.361 92.1623 649.711 95.0225C648.171 97.8827 646.411 100.358 644.431 102.448C642.561 104.538 640.526 106.298 638.325 107.729C636.125 109.049 633.98 110.149 631.89 111.029C626.829 113.009 621.494 113.999 615.884 113.999C608.513 113.889 601.967 112.349 596.247 109.379C593.827 108.059 591.407 106.408 588.986 104.428C586.676 102.338 584.586 99.7529 582.716 96.6726C580.956 93.5924 579.526 89.9071 578.426 85.6168C577.325 81.3264 576.775 76.321 576.775 70.6005C576.775 64.8801 577.325 59.8747 578.426 55.5843C579.526 51.294 580.956 47.6087 582.716 44.5284C584.586 41.3382 586.676 38.698 588.986 36.6078C591.407 34.5176 593.827 32.8125 596.247 31.4924C601.967 28.4121 608.513 26.762 615.884 26.542C621.934 26.762 627.599 28.0271 632.88 30.3373C635.08 31.3274 637.28 32.6475 639.48 34.2976C641.791 35.8377 643.881 37.8179 645.751 40.2381C647.731 42.5483 649.436 45.3535 650.866 48.6538C652.406 51.844 653.507 55.5843 654.167 59.8747ZM633.375 59.8747C632.825 58.1145 632.11 56.3544 631.23 54.5943C630.46 52.8341 629.36 51.239 627.93 49.8089C626.499 48.3788 624.794 47.2787 622.814 46.5086C620.834 45.6285 618.524 45.1885 615.884 45.1885C613.243 45.1885 610.933 45.6285 608.953 46.5086C606.973 47.2787 605.268 48.3788 603.838 49.8089C602.407 51.239 601.252 52.8341 600.372 54.5943C599.492 56.3544 598.832 58.1145 598.392 59.8747H633.375Z" fill="#D8D6F5"/>
<path d="M522.905 112.35H509.374L482.147 28.6885H502.444L522.905 91.2285L543.367 28.6885H563.664L536.436 112.35H522.905Z" fill="#D8D6F5"/>
<path d="M448.533 10.0416C448.533 7.62136 448.533 5.80621 448.533 4.59611C448.643 3.38601 448.973 2.50594 449.523 1.9559C450.183 1.40585 451.173 1.13083 452.493 1.13083C453.923 1.02082 455.958 0.96582 458.599 0.96582C461.239 0.96582 463.219 1.02082 464.539 1.13083C465.969 1.13083 466.959 1.40585 467.509 1.9559C468.169 2.50594 468.499 3.38601 468.499 4.59611C468.609 5.80621 468.664 7.62136 468.664 10.0416C468.664 12.4617 468.609 14.2769 468.499 15.487C468.499 16.6971 468.169 17.5772 467.509 18.1272C466.959 18.6772 465.969 19.0073 464.539 19.1173C463.219 19.1173 461.239 19.1173 458.599 19.1173C455.958 19.1173 453.923 19.1173 452.493 19.1173C451.173 19.0073 450.183 18.6772 449.523 18.1272C448.973 17.5772 448.643 16.6971 448.533 15.487C448.533 14.2769 448.533 12.4617 448.533 10.0416Z" fill="#EE9A0F"/>
<path d="M468.664 112.344V28.6826H448.533V112.344H468.664Z" fill="#D8D6F5"/>
<path d="M381.662 0.96582V38.4238C382.652 37.3237 383.807 36.1687 385.127 34.9586C386.447 33.7485 387.987 32.6484 389.748 31.6583C391.508 30.6682 393.543 29.8981 395.853 29.3481C398.163 28.6881 400.803 28.358 403.774 28.358C407.074 28.358 410.429 28.9631 413.839 30.1732C417.36 31.3833 420.495 33.2534 423.245 35.7836C426.105 38.2038 428.416 41.2841 430.176 45.0244C432.046 48.6547 432.981 52.945 432.981 57.8954V112.35H412.849V66.8061C412.849 64.1659 412.684 61.7457 412.354 59.5455C412.024 57.2353 411.309 55.2002 410.209 53.44C409.219 51.6799 407.679 50.3048 405.589 49.3147C403.609 48.3246 400.913 47.8296 397.503 47.8296C393.983 47.8296 391.178 48.3246 389.087 49.3147C386.997 50.3048 385.347 51.6799 384.137 53.44C383.037 55.2002 382.322 57.2353 381.992 59.5455C381.662 61.7457 381.497 64.1659 381.497 66.8061L381.827 112.35H361.53V0.96582H381.662Z" fill="#D8D6F5"/>
<path d="M325.821 40.404V0.96582H345.457V70.4364C345.457 76.1569 344.907 81.1623 343.807 85.4526C342.707 89.743 341.222 93.4833 339.352 96.6735C337.591 99.7538 335.556 102.339 333.246 104.429C330.936 106.409 328.571 108.059 326.151 109.38C320.43 112.35 313.995 113.89 306.844 114C299.473 113.89 292.928 112.35 287.207 109.38C284.787 108.059 282.367 106.409 279.947 104.429C277.637 102.339 275.546 99.7538 273.676 96.6735C271.916 93.5933 270.486 89.908 269.386 85.6176C268.286 81.3273 267.736 76.3219 267.736 70.6014C267.736 64.881 268.231 59.8756 269.221 55.5852C270.321 51.2949 271.696 47.6096 273.346 44.5293C275.106 41.3391 277.032 38.6989 279.122 36.6087C281.322 34.5185 283.577 32.8134 285.887 31.4933C291.168 28.413 297.218 26.7629 304.039 26.5429C307.449 26.8729 310.749 27.698 313.94 29.0181C316.69 30.2282 319.495 32.0983 322.355 34.6285C325.215 37.0487 327.581 40.569 329.451 45.1894L325.821 40.404ZM306.844 95.1884C310.914 95.1884 314.16 94.3633 316.58 92.7132C319.11 91.0631 321.035 89.0279 322.355 86.6077C323.785 84.0775 324.72 81.3823 325.16 78.5221C325.601 75.6618 325.821 73.0216 325.821 70.6014C325.821 68.1812 325.601 65.541 325.16 62.6808C324.72 59.8206 323.785 57.1803 322.355 54.7602C321.035 52.2299 319.11 50.1398 316.58 48.4896C314.16 46.8395 310.914 46.0145 306.844 46.0145C302.774 46.0145 299.473 46.8395 296.943 48.4896C294.523 50.1398 292.653 52.2299 291.333 54.7602C290.013 57.1803 289.133 59.8206 288.693 62.6808C288.252 65.541 288.032 68.1812 288.032 70.6014C288.032 73.0216 288.252 75.6618 288.693 78.5221C289.133 81.3823 290.013 84.0775 291.333 86.6077C292.653 89.0279 294.523 91.0631 296.943 92.7132C299.473 94.3633 302.774 95.1884 306.844 95.1884Z" fill="#D8D6F5"/>
<path d="M216.245 26.542C216.575 26.542 217.73 26.597 219.71 26.707C221.8 26.817 224.22 27.3121 226.971 28.1921C229.721 28.9622 232.636 30.2273 235.716 31.9874C238.797 33.7476 241.657 36.2778 244.297 39.578C246.937 42.8783 249.082 47.0586 250.732 52.1191C252.493 57.0695 253.373 63.23 253.373 70.6005V112.349H233.241V70.6005C233.241 68.1804 233.021 65.7052 232.581 63.1749C232.141 60.6447 231.316 58.3346 230.106 56.2444C228.896 54.1542 227.191 52.4491 224.99 51.129C222.79 49.6989 219.875 48.9838 216.245 48.9838C212.614 48.9838 209.699 49.6989 207.499 51.129C205.299 52.4491 203.594 54.1542 202.384 56.2444C201.173 58.3346 200.348 60.6447 199.908 63.1749C199.468 65.7052 199.248 68.1804 199.248 70.6005V112.349H179.117V70.6005C179.117 63.23 179.942 57.0695 181.592 52.1191C183.352 47.0586 185.552 42.8783 188.192 39.578C190.833 36.2778 193.693 33.7476 196.773 31.9874C199.853 30.2273 202.769 28.9622 205.519 28.1921C208.269 27.3121 210.634 26.817 212.614 26.707C214.595 26.597 215.805 26.542 216.245 26.542Z" fill="#D8D6F5"/>
<path d="M143.854 10.0416C143.854 7.62136 143.854 5.80621 143.854 4.59611C143.965 3.38601 144.295 2.50594 144.845 1.9559C145.505 1.40585 146.495 1.13083 147.815 1.13083C149.245 1.02082 151.28 0.96582 153.92 0.96582C156.561 0.96582 158.541 1.02082 159.861 1.13083C161.291 1.13083 162.281 1.40585 162.831 1.9559C163.491 2.50594 163.821 3.38601 163.821 4.59611C163.931 5.80621 163.986 7.62136 163.986 10.0416C163.986 12.4617 163.931 14.2769 163.821 15.487C163.821 16.6971 163.491 17.5772 162.831 18.1272C162.281 18.6772 161.291 19.0073 159.861 19.1173C158.541 19.1173 156.561 19.1173 153.92 19.1173C151.28 19.1173 149.245 19.1173 147.815 19.1173C146.495 19.0073 145.505 18.6772 144.845 18.1272C144.295 17.5772 143.965 16.6971 143.854 15.487C143.854 14.2769 143.854 12.4617 143.854 10.0416Z" fill="#EE9A0F"/>
<path d="M163.986 112.344V28.6826H143.854V112.344H163.986Z" fill="#D8D6F5"/>
<path d="M54.5545 70.6005C54.5545 68.1804 54.3895 65.7052 54.0595 63.1749C53.8395 60.6447 53.1794 58.3346 52.0793 56.2444C50.9792 54.1542 49.2741 52.4491 46.9639 51.129C44.7637 49.6989 41.6285 48.9838 37.5582 48.9838C33.4878 48.9838 30.2976 49.6989 27.9874 51.129C25.7872 52.4491 24.1371 54.1542 23.037 56.2444C21.9369 58.3346 21.2218 60.6447 20.8918 63.1749C20.6718 65.7052 20.5618 68.1804 20.5618 70.6005V112.349H0.430176V70.6005C0.430176 64.8801 0.925216 59.8747 1.9153 55.5843C3.01538 51.294 4.4455 47.6087 6.20564 44.5284C7.96578 41.3382 9.94594 38.698 12.1461 36.6078C14.3463 34.5176 16.6015 32.8125 18.9117 31.4924C24.3021 28.4121 30.5176 26.762 37.5582 26.542C44.4887 26.762 50.6492 28.4121 56.0397 31.4924C58.3498 32.8125 60.605 34.5176 62.8052 36.6078C65.1154 38.698 67.0955 41.3382 68.7457 44.5284C70.5058 47.6087 71.9359 51.294 73.036 55.5843C74.1361 59.8747 74.6862 64.8801 74.6862 70.6005V112.349H54.5545V70.6005ZM108.679 70.6005C108.679 68.1804 108.514 65.7052 108.184 63.1749C107.964 60.6447 107.304 58.3346 106.204 56.2444C105.104 54.1542 103.398 52.4491 101.088 51.129C98.8881 49.6989 95.7529 48.9838 91.6825 48.9838C87.6122 48.9838 84.4219 49.6989 82.1118 51.129C79.9116 52.4491 78.2614 54.1542 77.1614 56.2444C76.0613 58.3346 75.3462 60.6447 75.0162 63.1749C74.7962 65.7052 74.6862 68.1804 74.6862 70.6005V112.349H54.5545V70.6005C54.5545 64.8801 55.0496 59.8747 56.0397 55.5843C57.1397 51.294 58.5699 47.6087 60.33 44.5284C62.0901 41.3382 64.0703 38.698 66.2705 36.6078C68.4707 34.5176 70.7258 32.8125 73.036 31.4924C78.4265 28.4121 84.642 26.762 91.6825 26.542C98.6131 26.762 104.774 28.4121 110.164 31.4924C112.474 32.8125 114.729 34.5176 116.93 36.6078C119.24 38.698 121.22 41.3382 122.87 44.5284C124.63 47.6087 126.06 51.294 127.16 55.5843C128.26 59.8747 128.811 64.8801 128.811 70.6005V112.349H108.679V70.6005Z" fill="#D8D6F5"/>
</svg>
