<svg width="117" height="78" viewBox="0 0 117 78" fill="none" xmlns="http://www.w3.org/2000/svg">
<path d="M49.2 40.05C49.2 37.85 49.05 35.6 48.75 33.3C48.55 31 47.95 28.9 46.95 27C45.95 25.1 44.4 23.55 42.3 22.35C40.3 21.05 37.45 20.4 33.75 20.4C30.05 20.4 27.15 21.05 25.05 22.35C23.05 23.55 21.55 25.1 20.55 27C19.55 28.9 18.9 31 18.6 33.3C18.4 35.6 18.3 37.85 18.3 40.05V78H0V40.05C0 34.85 0.45 30.3 1.35 26.4C2.35 22.5 3.65 19.15 5.25 16.35C6.85 13.45 8.65 11.05 10.65 9.15001C12.65 7.25001 14.7 5.70001 16.8 4.50001C21.7 1.70001 27.35 0.200003 33.75 0C40.05 0.200003 45.65 1.70001 50.55 4.50001C52.65 5.70001 54.7 7.25001 56.7 9.15001C58.8 11.05 60.6 13.45 62.1 16.35C63.7 19.15 65 22.5 66 26.4C67 30.3 67.5 34.85 67.5 40.05V78H49.2V40.05ZM98.4 40.05C98.4 37.85 98.25 35.6 97.95 33.3C97.75 31 97.15 28.9 96.15 27C95.15 25.1 93.6 23.55 91.5 22.35C89.5 21.05 86.65 20.4 82.95 20.4C79.25 20.4 76.35 21.05 74.25 22.35C72.25 23.55 70.75 25.1 69.75 27C68.75 28.9 68.1 31 67.8 33.3C67.6 35.6 67.5 37.85 67.5 40.05V78H49.2V40.05C49.2 34.85 49.65 30.3 50.55 26.4C51.55 22.5 52.85 19.15 54.45 16.35C56.05 13.45 57.85 11.05 59.85 9.15001C61.85 7.25001 63.9 5.70001 66 4.50001C70.9 1.70001 76.55 0.200003 82.95 0C89.25 0.200003 94.85 1.70001 99.75 4.50001C101.85 5.70001 103.9 7.25001 105.9 9.15001C108 11.05 109.8 13.45 111.3 16.35C112.9 19.15 114.2 22.5 115.2 26.4C116.2 30.3 116.7 34.85 116.7 40.05V78H98.4V40.05Z" fill="#D8D6F5"/>
</svg>
