<svg width="342" height="113" viewBox="0 0 342 113" fill="none" xmlns="http://www.w3.org/2000/svg">
<path d="M322.808 69.75C322.808 67.55 322.808 65.9 322.808 64.8C322.908 63.7 323.208 62.9 323.708 62.4C324.308 61.9 325.208 61.65 326.408 61.65C327.708 61.55 329.558 61.5 331.958 61.5C334.358 61.5 336.158 61.55 337.358 61.65C338.658 61.65 339.558 61.9 340.058 62.4C340.658 62.9 340.958 63.7 340.958 64.8C341.058 65.9 341.108 67.55 341.108 69.75C341.108 71.95 341.058 73.6 340.958 74.7C340.958 75.8 340.658 76.6 340.058 77.1C339.558 77.6 338.658 77.9 337.358 78C336.158 78 334.358 78 331.958 78C329.558 78 327.708 78 326.408 78C325.208 77.9 324.308 77.6 323.708 77.1C323.208 76.6 322.908 75.8 322.808 74.7C322.808 73.6 322.808 71.95 322.808 69.75Z" fill="#EE9A0F"/>
<path d="M311.791 30.3C311.991 31.8 312.141 33.35 312.241 34.95C312.441 36.55 312.541 38.25 312.541 40.05V42.75H260.041C260.241 44.45 260.491 46.2 260.791 48C261.091 49.7 261.591 51.4 262.291 53.1C263.391 55.7 265.091 58 267.391 60C269.691 62 272.891 63 276.991 63C281.091 63 284.291 62 286.591 60C288.891 58 290.591 55.7 291.691 53.1H311.191C310.391 56.6 309.241 59.65 307.741 62.25C306.341 64.85 304.741 67.1 302.941 69C301.241 70.9 299.391 72.5 297.391 73.8C295.391 75 293.441 76 291.541 76.8C286.941 78.6 282.091 79.5 276.991 79.5C270.291 79.4 264.341 78 259.141 75.3C256.941 74.1 254.741 72.6 252.541 70.8C250.441 68.9 248.541 66.55 246.841 63.75C245.241 60.95 243.941 57.6 242.941 53.7C241.941 49.8 241.441 45.25 241.441 40.05C241.441 34.85 241.941 30.3 242.941 26.4C243.941 22.5 245.241 19.15 246.841 16.35C248.541 13.45 250.441 11.05 252.541 9.15001C254.741 7.25001 256.941 5.70001 259.141 4.50001C264.341 1.70001 270.291 0.200003 276.991 0C282.491 0.200003 287.641 1.35 292.441 3.45C294.441 4.35 296.441 5.55 298.441 7.05C300.541 8.45 302.441 10.25 304.141 12.45C305.941 14.55 307.491 17.1 308.791 20.1C310.191 23 311.191 26.4 311.791 30.3ZM292.891 30.3C292.391 28.7 291.741 27.1 290.941 25.5C290.241 23.9 289.241 22.45 287.941 21.15C286.641 19.85 285.091 18.85 283.291 18.15C281.491 17.35 279.391 16.95 276.991 16.95C274.591 16.95 272.491 17.35 270.691 18.15C268.891 18.85 267.341 19.85 266.041 21.15C264.741 22.45 263.691 23.9 262.891 25.5C262.091 27.1 261.491 28.7 261.091 30.3H292.891Z" fill="#D8D6F5"/>
<path d="M213.318 40.05C213.318 37.35 213.118 34.7 212.718 32.1C212.418 29.4 211.668 27 210.468 24.9C209.368 22.7 207.668 20.95 205.368 19.65C203.068 18.35 199.968 17.7 196.068 17.7C192.368 17.7 189.368 18.45 187.068 19.95C184.868 21.45 183.168 23.35 181.968 25.65C180.768 27.85 179.968 30.25 179.568 32.85C179.168 35.45 178.968 37.85 178.968 40.05C178.968 42.25 179.168 44.65 179.568 47.25C179.968 49.85 180.768 52.3 181.968 54.6C183.168 56.8 184.868 58.65 187.068 60.15C189.368 61.65 192.368 62.4 196.068 62.4C199.768 62.4 202.718 61.65 204.918 60.15C207.218 58.65 208.968 56.8 210.168 54.6C211.468 52.3 212.318 49.85 212.718 47.25C213.118 44.65 213.318 42.25 213.318 40.05ZM196.068 0C202.368 0 207.718 0.9 212.118 2.7C216.518 4.5 220.118 7.15 222.918 10.65C225.818 14.05 227.918 18.25 229.218 23.25C230.518 28.15 231.168 33.75 231.168 40.05V74.25C231.168 77.25 230.968 80 230.568 82.5C230.268 85.1 229.818 87.5 229.218 89.7C228.318 93 226.818 96 224.718 98.7C222.718 101.5 220.118 103.9 216.918 105.9C213.718 107.9 209.918 109.45 205.518 110.55C201.118 111.65 196.068 112.2 190.368 112.2L170.418 112.05V95.1H186.618C193.418 95.1 198.618 94.4 202.218 93C205.818 91.6 208.418 89.9 210.018 87.9C211.718 86 212.668 84.05 212.868 82.05C213.168 80.05 213.318 78.5 213.318 77.4V67.5L216.618 63.15C214.918 67.35 212.768 70.55 210.168 72.75C207.568 74.95 205.018 76.55 202.518 77.55C199.618 78.65 196.618 79.3 193.518 79.5C187.318 79.4 181.818 78 177.018 75.3C174.918 74.1 172.868 72.6 170.868 70.8C168.968 68.9 167.218 66.55 165.618 63.75C164.118 60.95 162.868 57.6 161.868 53.7C160.968 49.8 160.518 45.25 160.518 40.05C160.518 34.85 161.018 30.3 162.018 26.4C163.018 22.5 164.318 19.15 165.918 16.35C167.618 13.45 169.518 11.05 171.618 9.15001C173.818 7.25001 176.018 5.70001 178.218 4.50001C183.418 1.70001 189.368 0.200003 196.068 0Z" fill="#D8D6F5"/>
<path d="M150.687 78H132.837V67.5L136.137 63.15C134.437 67.35 132.287 70.55 129.687 72.75C127.087 74.95 124.537 76.55 122.037 77.55C119.137 78.65 116.137 79.3 113.037 79.5C106.837 79.4 101.337 78 96.5374 75.3C94.4374 74.1 92.3874 72.6 90.3874 70.8C88.4874 68.9 86.7374 66.55 85.1374 63.75C83.6374 60.95 82.3874 57.6 81.3874 53.7C80.4874 49.8 80.0374 45.25 80.0374 40.05C80.0374 34.85 80.5374 30.3 81.5374 26.4C82.5374 22.5 83.8374 19.15 85.4374 16.35C87.1374 13.45 89.0374 11.05 91.1374 9.15001C93.3374 7.25001 95.5374 5.70001 97.7374 4.50001C102.937 1.70001 108.887 0.200003 115.587 0C121.887 0 127.237 0.950003 131.637 2.85C136.037 4.65001 139.637 7.30001 142.437 10.8C145.337 14.2 147.437 18.4 148.737 23.4C150.037 28.3 150.687 33.9 150.687 40.2V78ZM115.587 17.7C111.887 17.7 108.887 18.45 106.587 19.95C104.387 21.45 102.687 23.35 101.487 25.65C100.287 27.85 99.4874 30.25 99.0874 32.85C98.6874 35.45 98.4874 37.85 98.4874 40.05C98.4874 42.25 98.6874 44.65 99.0874 47.25C99.4874 49.85 100.287 52.3 101.487 54.6C102.687 56.8 104.387 58.65 106.587 60.15C108.887 61.65 111.887 62.4 115.587 62.4C119.287 62.4 122.237 61.65 124.437 60.15C126.737 58.65 128.487 56.8 129.687 54.6C130.987 52.3 131.837 49.85 132.237 47.25C132.637 44.65 132.837 42.25 132.837 40.05C132.837 37.35 132.637 34.7 132.237 32.1C131.937 29.4 131.187 27 129.987 24.9C128.887 22.7 127.187 20.95 124.887 19.65C122.587 18.35 119.487 17.7 115.587 17.7Z" fill="#D8D6F5"/>
<path d="M35.1 17.7C31.2 17.7 28.1 18.35 25.8 19.65C23.5 20.95 21.75 22.7 20.55 24.9C19.45 27 18.7 29.4 18.3 32.1C18 34.7 17.85 37.35 17.85 40.05C17.85 42.25 18.05 44.65 18.45 47.25C18.85 49.85 19.65 52.3 20.85 54.6C22.15 56.8 23.9 58.65 26.1 60.15C28.4 61.65 31.4 62.4 35.1 62.4C38.8 62.4 41.75 61.65 43.95 60.15C46.25 58.65 48 56.8 49.2 54.6C50.4 52.3 51.2 49.85 51.6 47.25C52 44.65 52.2 42.25 52.2 40.05C52.2 37.85 52 35.45 51.6 32.85C51.2 30.25 50.4 27.85 49.2 25.65C48 23.35 46.25 21.45 43.95 19.95C41.75 18.45 38.8 17.7 35.1 17.7ZM0 40.2C0 33.9 0.65 28.3 1.95 23.4C3.25 18.4 5.3 14.2 8.1 10.8C11 7.30001 14.65 4.65001 19.05 2.85C23.45 0.950003 28.8 0 35.1 0C41.7 0.200003 47.6 1.70001 52.8 4.50001C55 5.70001 57.15 7.25001 59.25 9.15001C61.45 11.05 63.35 13.45 64.95 16.35C66.65 19.15 68 22.5 69 26.4C70.1 30.3 70.65 34.85 70.65 40.05C70.65 45.25 70.15 49.8 69.15 53.7C68.25 57.6 67 60.95 65.4 63.75C63.9 66.55 62.15 68.9 60.15 70.8C58.25 72.6 56.25 74.1 54.15 75.3C49.35 78 43.85 79.4 37.65 79.5C34.55 79.3 31.55 78.65 28.65 77.55C26.15 76.55 23.6 74.95 21 72.75C18.4 70.55 16.25 67.35 14.55 63.15L17.85 67.5V103.2H0V40.2Z" fill="#D8D6F5"/>
</svg>
