<svg width="342" height="113" viewBox="0 0 342 113" fill="none" xmlns="http://www.w3.org/2000/svg">
<path d="M323.29 69.75C323.29 67.55 323.29 65.9 323.29 64.8C323.39 63.7 323.69 62.9 324.19 62.4C324.79 61.9 325.69 61.65 326.89 61.65C328.19 61.55 330.04 61.5 332.44 61.5C334.84 61.5 336.64 61.55 337.84 61.65C339.14 61.65 340.04 61.9 340.54 62.4C341.14 62.9 341.44 63.7 341.44 64.8C341.54 65.9 341.59 67.55 341.59 69.75C341.59 71.95 341.54 73.6 341.44 74.7C341.44 75.8 341.14 76.6 340.54 77.1C340.04 77.6 339.14 77.9 337.84 78C336.64 78 334.84 78 332.44 78C330.04 78 328.19 78 326.89 78C325.69 77.9 324.79 77.6 324.19 77.1C323.69 76.6 323.39 75.8 323.29 74.7C323.29 73.6 323.29 71.95 323.29 69.75Z" fill="#EE9A0F"/>
<path d="M312.273 30.3C312.473 31.8 312.623 33.35 312.723 34.95C312.923 36.55 313.023 38.25 313.023 40.05V42.75H260.523C260.723 44.45 260.973 46.2 261.273 48C261.573 49.7 262.073 51.4 262.773 53.1C263.873 55.7 265.573 58 267.873 60C270.173 62 273.373 63 277.473 63C281.573 63 284.773 62 287.073 60C289.373 58 291.073 55.7 292.173 53.1H311.673C310.873 56.6 309.723 59.65 308.223 62.25C306.823 64.85 305.223 67.1 303.423 69C301.723 70.9 299.873 72.5 297.873 73.8C295.873 75 293.923 76 292.023 76.8C287.423 78.6 282.573 79.5 277.473 79.5C270.773 79.4 264.823 78 259.623 75.3C257.423 74.1 255.223 72.6 253.023 70.8C250.923 68.9 249.023 66.55 247.323 63.75C245.723 60.95 244.423 57.6 243.423 53.7C242.423 49.8 241.923 45.25 241.923 40.05C241.923 34.85 242.423 30.3 243.423 26.4C244.423 22.5 245.723 19.15 247.323 16.35C249.023 13.45 250.923 11.05 253.023 9.15001C255.223 7.25001 257.423 5.70001 259.623 4.50001C264.823 1.70001 270.773 0.200003 277.473 0C282.973 0.200003 288.123 1.35 292.923 3.45C294.923 4.35 296.923 5.55 298.923 7.05C301.023 8.45 302.923 10.25 304.623 12.45C306.423 14.55 307.973 17.1 309.273 20.1C310.673 23 311.673 26.4 312.273 30.3ZM293.373 30.3C292.873 28.7 292.223 27.1 291.423 25.5C290.723 23.9 289.723 22.45 288.423 21.15C287.123 19.85 285.573 18.85 283.773 18.15C281.973 17.35 279.873 16.95 277.473 16.95C275.073 16.95 272.973 17.35 271.173 18.15C269.373 18.85 267.823 19.85 266.523 21.15C265.223 22.45 264.173 23.9 263.373 25.5C262.573 27.1 261.973 28.7 261.573 30.3H293.373Z" fill="#D8D6F5"/>
<path d="M213.8 40.05C213.8 37.35 213.6 34.7 213.2 32.1C212.9 29.4 212.15 27 210.95 24.9C209.85 22.7 208.15 20.95 205.85 19.65C203.55 18.35 200.45 17.7 196.55 17.7C192.85 17.7 189.85 18.45 187.55 19.95C185.35 21.45 183.65 23.35 182.45 25.65C181.25 27.85 180.45 30.25 180.05 32.85C179.65 35.45 179.45 37.85 179.45 40.05C179.45 42.25 179.65 44.65 180.05 47.25C180.45 49.85 181.25 52.3 182.45 54.6C183.65 56.8 185.35 58.65 187.55 60.15C189.85 61.65 192.85 62.4 196.55 62.4C200.25 62.4 203.2 61.65 205.4 60.15C207.7 58.65 209.45 56.8 210.65 54.6C211.95 52.3 212.8 49.85 213.2 47.25C213.6 44.65 213.8 42.25 213.8 40.05ZM196.55 0C202.85 0 208.2 0.9 212.6 2.7C217 4.5 220.6 7.15 223.4 10.65C226.3 14.05 228.4 18.25 229.7 23.25C231 28.15 231.65 33.75 231.65 40.05V74.25C231.65 77.25 231.45 80 231.05 82.5C230.75 85.1 230.3 87.5 229.7 89.7C228.8 93 227.3 96 225.2 98.7C223.2 101.5 220.6 103.9 217.4 105.9C214.2 107.9 210.4 109.45 206 110.55C201.6 111.65 196.55 112.2 190.85 112.2L170.9 112.05V95.1H187.1C193.9 95.1 199.1 94.4 202.7 93C206.3 91.6 208.9 89.9 210.5 87.9C212.2 86 213.15 84.05 213.35 82.05C213.65 80.05 213.8 78.5 213.8 77.4V67.5L217.1 63.15C215.4 67.35 213.25 70.55 210.65 72.75C208.05 74.95 205.5 76.55 203 77.55C200.1 78.65 197.1 79.3 194 79.5C187.8 79.4 182.3 78 177.5 75.3C175.4 74.1 173.35 72.6 171.35 70.8C169.45 68.9 167.7 66.55 166.1 63.75C164.6 60.95 163.35 57.6 162.35 53.7C161.45 49.8 161 45.25 161 40.05C161 34.85 161.5 30.3 162.5 26.4C163.5 22.5 164.8 19.15 166.4 16.35C168.1 13.45 170 11.05 172.1 9.15001C174.3 7.25001 176.5 5.70001 178.7 4.50001C183.9 1.70001 189.85 0.200003 196.55 0Z" fill="#D8D6F5"/>
<path d="M151.169 78H133.319V67.5L136.619 63.15C134.919 67.35 132.769 70.55 130.169 72.75C127.569 74.95 125.019 76.55 122.519 77.55C119.619 78.65 116.619 79.3 113.519 79.5C107.319 79.4 101.819 78 97.019 75.3C94.919 74.1 92.869 72.6 90.869 70.8C88.969 68.9 87.219 66.55 85.619 63.75C84.119 60.95 82.869 57.6 81.869 53.7C80.969 49.8 80.519 45.25 80.519 40.05C80.519 34.85 81.019 30.3 82.019 26.4C83.019 22.5 84.319 19.15 85.919 16.35C87.619 13.45 89.519 11.05 91.619 9.15001C93.819 7.25001 96.019 5.70001 98.219 4.50001C103.419 1.70001 109.369 0.200003 116.069 0C122.369 0 127.719 0.950003 132.119 2.85C136.519 4.65001 140.119 7.30001 142.919 10.8C145.819 14.2 147.919 18.4 149.219 23.4C150.519 28.3 151.169 33.9 151.169 40.2V78ZM116.069 17.7C112.369 17.7 109.369 18.45 107.069 19.95C104.869 21.45 103.169 23.35 101.969 25.65C100.769 27.85 99.969 30.25 99.569 32.85C99.169 35.45 98.969 37.85 98.969 40.05C98.969 42.25 99.169 44.65 99.569 47.25C99.969 49.85 100.769 52.3 101.969 54.6C103.169 56.8 104.869 58.65 107.069 60.15C109.369 61.65 112.369 62.4 116.069 62.4C119.769 62.4 122.719 61.65 124.919 60.15C127.219 58.65 128.969 56.8 130.169 54.6C131.469 52.3 132.319 49.85 132.719 47.25C133.119 44.65 133.319 42.25 133.319 40.05C133.319 37.35 133.119 34.7 132.719 32.1C132.419 29.4 131.669 27 130.469 24.9C129.369 22.7 127.669 20.95 125.369 19.65C123.069 18.35 119.969 17.7 116.069 17.7Z" fill="#D8D6F5"/>
<path d="M34.65 31.95C36.05 31.95 37.95 32 40.35 32.1C42.85 32.1 45.5 32.3 48.3 32.7C51.1 33 53.9 33.6 56.7 34.5C59.6 35.3 62.2 36.5 64.5 38.1C66.8 39.7 68.65 41.75 70.05 44.25C71.55 46.75 72.3 49.85 72.3 53.55C72.3 59.35 71 64 68.4 67.5C65.9 70.9 62.8 73.5 59.1 75.3C55.4 77.1 51.4 78.25 47.1 78.75C42.9 79.25 39.15 79.5 35.85 79.5C35.25 79.5 33.95 79.45 31.95 79.35C29.95 79.35 27.6 79.1 24.9 78.6C22.3 78.1 19.5 77.3 16.5 76.2C13.6 75.1 10.9 73.55 8.4 71.55C6 69.45 4 66.8 2.4 63.6C0.8 60.3 0 56.3 0 51.6H18.3C18.3 52.5 18.45 53.6 18.75 54.9C19.05 56.1 19.75 57.3 20.85 58.5C21.95 59.7 23.6 60.75 25.8 61.65C28 62.45 31 62.9 34.8 63C39.5 63.1 43.1 62.9 45.6 62.4C48.2 61.9 50.1 61.25 51.3 60.45C52.5 59.55 53.2 58.65 53.4 57.75C53.7 56.85 53.85 56 53.85 55.2C53.85 54.3 53.7 53.4 53.4 52.5C53.1 51.6 52.3 50.8 51 50.1C49.8 49.3 47.85 48.65 45.15 48.15C42.55 47.65 38.9 47.35 34.2 47.25C30.6 47.15 27 46.65 23.4 45.75C19.8 44.85 16.55 43.5 13.65 41.7C10.75 39.8 8.4 37.45 6.6 34.65C4.8 31.85 3.9 28.55 3.9 24.75C3.9 20.55 4.8 16.9 6.6 13.8C8.4 10.6 10.75 8 13.65 6C16.65 4.00001 20.05 2.50001 23.85 1.5C27.65 0.500001 31.65 0 35.85 0C38.05 0 41 0.25 44.7 0.75C48.4 1.25 52 2.4 55.5 4.2C59.1 6 62.15 8.65 64.65 12.15C67.25 15.65 68.5 20.4 68.4 26.4H50.1C50.1 23.2 49 20.7 46.8 18.9C44.7 17 40.9 16.05 35.4 16.05C31.3 16.05 28 16.85 25.5 18.45C23 19.95 21.75 22.05 21.75 24.75C21.75 27.35 22.95 29.2 25.35 30.3C27.75 31.4 30.85 31.95 34.65 31.95Z" fill="#D8D6F5"/>
</svg>
